<svg xmlns="http://www.w3.org/2000/svg" xmlns:xlink="http://www.w3.org/1999/xlink" width="500" zoomAndPan="magnify" viewBox="0 0 375 374.999991" height="500" preserveAspectRatio="xMidYMid meet" version="1.0"><defs><clipPath id="6affa76100"><path d="M 215 201 L 227.914062 201 L 227.914062 210 L 215 210 Z M 215 201 " clip-rule="nonzero"/></clipPath><clipPath id="2bc24d29e2"><path d="M 162 112.6875 L 213 112.6875 L 213 192 L 162 192 Z M 162 112.6875 " clip-rule="nonzero"/></clipPath></defs><path fill="#ffffff" d="M 156.203125 182.960938 C 156.203125 182.960938 154.714844 183.007812 154.304688 181.804688 C 154.304688 181.804688 154.5625 181.050781 155.710938 180.753906 C 155.710938 180.753906 156.597656 181.648438 156.203125 182.960938 Z M 155.902344 180.046875 C 154.222656 180.363281 153.601562 181.804688 153.601562 181.804688 C 153.601562 181.804688 154.367188 184.042969 156.996094 183.832031 C 156.996094 183.832031 157.527344 181.359375 155.902344 180.046875 " fill-opacity="1" fill-rule="nonzero"/><path fill="#ffffff" d="M 153.386719 180.976562 C 153.417969 180.960938 155.886719 177.476562 157.605469 180.566406 C 157.789062 180.886719 157.90625 181.242188 157.988281 181.605469 C 158.078125 182.015625 158.34375 182.644531 159.097656 182.613281 C 159.097656 182.613281 159.054688 181.394531 158.488281 180.199219 C 158.253906 179.710938 157.910156 179.285156 157.460938 178.980469 C 157.171875 178.785156 156.800781 178.613281 156.371094 178.574219 C 155.660156 178.503906 154.933594 178.699219 154.363281 179.125 C 153.890625 179.472656 153.417969 180.054688 153.386719 180.976562 " fill-opacity="1" fill-rule="nonzero"/><path fill="#ffffff" d="M 171.179688 229.777344 C 171.179688 229.777344 163.820312 230.082031 160.074219 236.90625 C 160.074219 236.90625 163.792969 232.164062 171.179688 229.777344 " fill-opacity="1" fill-rule="nonzero"/><path fill="#ffffff" d="M 162.886719 241.519531 C 162.886719 241.519531 169.5625 240.0625 174.597656 235.070312 C 174.597656 235.070312 170.898438 241.632812 162.886719 241.519531 " fill-opacity="1" fill-rule="nonzero"/><path fill="#ffffff" d="M 181.75 225.0625 C 194.476562 237.285156 201.773438 245.226562 208.832031 246.226562 C 208.832031 246.226562 207.351562 245.167969 204.917969 243.4375 C 194.320312 235.910156 187.777344 228.476562 181.75 225.0625 " fill-opacity="1" fill-rule="nonzero"/><path fill="#ed155d" d="M 169.261719 200.847656 C 169.261719 200.847656 171.957031 202.453125 176.492188 202.214844 C 176.492188 202.214844 172.828125 204.9375 169.261719 200.847656 " fill-opacity="1" fill-rule="nonzero"/><path fill="#ed155d" d="M 172.738281 198.847656 C 172.738281 198.847656 173.105469 200.453125 172.816406 202.726562 L 173.398438 203.101562 C 173.175781 203.195312 172.9375 203.21875 172.75 203.214844 C 172.578125 204.265625 172.265625 205.433594 171.722656 206.640625 C 175.667969 202.359375 172.738281 198.847656 172.738281 198.847656 " fill-opacity="1" fill-rule="nonzero"/><path fill="#ffffff" d="M 158.539062 209.777344 C 158.539062 209.777344 162.015625 215.179688 168.808594 218.097656 C 175.601562 221.015625 177.457031 221.808594 179.507812 223.097656 C 179.507812 223.097656 177.230469 220.777344 174.351562 218.914062 C 170.597656 216.484375 168.742188 213.621094 168.742188 213.621094 C 168.742188 213.621094 168.957031 215.757812 170.433594 217.34375 C 170.433594 217.34375 164.367188 215.179688 158.539062 209.777344 " fill-opacity="1" fill-rule="nonzero"/><path fill="#ffffff" d="M 197.453125 231.4375 C 197.453125 231.4375 202.363281 235.238281 205.15625 237.675781 C 207.988281 240.15625 210.457031 240.085938 210.457031 240.085938 C 210.457031 240.085938 209.160156 238.160156 206.1875 236.511719 C 202.988281 234.738281 197.453125 231.4375 197.453125 231.4375 " fill-opacity="1" fill-rule="nonzero"/><path fill="#ffffff" d="M 207.492188 234.382812 C 203.816406 231.089844 198.28125 228.882812 198.28125 228.882812 C 198.28125 228.882812 202.191406 232.148438 207.492188 234.382812 " fill-opacity="1" fill-rule="nonzero"/><path fill="#ffffff" d="M 200.996094 198.847656 C 201.363281 198.644531 201.703125 198.429688 202.035156 198.210938 C 202.113281 198.152344 202.195312 198.101562 202.273438 198.046875 C 202.355469 197.984375 202.433594 197.929688 202.515625 197.875 L 202.746094 197.695312 L 202.859375 197.613281 L 202.972656 197.519531 C 203.269531 197.285156 203.542969 197.019531 203.804688 196.742188 C 203.863281 196.671875 203.921875 196.597656 203.980469 196.527344 C 204.042969 196.453125 204.109375 196.386719 204.160156 196.304688 L 204.3125 196.078125 L 204.398438 195.960938 C 204.417969 195.921875 204.441406 195.882812 204.46875 195.84375 L 204.609375 195.601562 C 204.628906 195.5625 204.652344 195.523438 204.675781 195.476562 L 204.730469 195.351562 L 204.851562 195.101562 C 204.867188 195.054688 204.890625 195.023438 204.914062 194.972656 L 204.972656 194.828125 C 205.140625 194.441406 205.332031 194.0625 205.542969 193.703125 C 205.964844 192.972656 206.472656 192.289062 207.042969 191.667969 C 207.324219 191.359375 207.628906 191.0625 207.941406 190.78125 C 208.238281 190.527344 208.527344 190.25 208.8125 189.976562 C 209.375 189.417969 209.902344 188.824219 210.414062 188.207031 C 211.421875 186.972656 212.308594 185.628906 213.125 184.222656 C 212.582031 185.75 211.84375 187.226562 210.929688 188.589844 C 210.480469 189.277344 209.96875 189.925781 209.425781 190.558594 C 209.15625 190.871094 208.867188 191.167969 208.574219 191.464844 C 208.300781 191.734375 208.035156 192.023438 207.789062 192.324219 C 207.292969 192.921875 206.859375 193.566406 206.476562 194.234375 C 206.28125 194.574219 206.105469 194.917969 205.9375 195.265625 L 205.871094 195.398438 C 205.855469 195.4375 205.820312 195.496094 205.800781 195.539062 L 205.644531 195.832031 L 205.566406 195.976562 C 205.542969 196.027344 205.511719 196.070312 205.476562 196.117188 L 205.300781 196.394531 C 205.265625 196.4375 205.238281 196.480469 205.207031 196.527344 L 205.101562 196.652344 L 204.894531 196.910156 C 204.828125 196.992188 204.746094 197.0625 204.667969 197.148438 C 204.597656 197.226562 204.519531 197.300781 204.441406 197.375 L 204.195312 197.585938 L 204.070312 197.691406 C 204.03125 197.722656 203.988281 197.757812 203.941406 197.789062 L 203.679688 197.980469 C 203.59375 198.039062 203.5 198.09375 203.410156 198.152344 C 203.316406 198.207031 203.226562 198.261719 203.132812 198.304688 C 203.03125 198.355469 202.9375 198.40625 202.84375 198.445312 C 202.644531 198.527344 202.449219 198.609375 202.246094 198.667969 C 202.144531 198.699219 202.039062 198.722656 201.941406 198.75 C 201.835938 198.773438 201.734375 198.792969 201.628906 198.8125 C 201.417969 198.84375 201.207031 198.859375 200.996094 198.847656 " fill-opacity="1" fill-rule="nonzero"/><path fill="#ffffff" d="M 215.214844 199.652344 C 215.609375 199.820312 216.097656 199.96875 215.992188 200.917969 C 215.804688 202.648438 216.921875 203.757812 216.921875 203.757812 C 213.988281 202.402344 215.214844 199.652344 215.214844 199.652344 Z M 214.644531 198.328125 C 214.644531 198.328125 214.601562 196.984375 213.703125 196.304688 C 213.703125 196.304688 213.96875 196.8125 213.945312 197.453125 C 213.945312 197.453125 213.839844 196.96875 213.570312 196.582031 C 213.230469 196.105469 212.488281 196.265625 212.394531 196.84375 C 212.375 196.929688 212.371094 197.023438 212.375 197.128906 C 212.375 197.128906 211.761719 196.105469 212.714844 194.933594 C 212.714844 194.933594 213.046875 195.035156 213.46875 195.25 C 214.21875 195.648438 214.683594 196.441406 214.667969 197.292969 Z M 216.894531 201.160156 C 216.941406 198.316406 215.28125 197.851562 215.28125 197.851562 L 215.304688 197.308594 C 215.367188 195.921875 214.515625 194.652344 213.207031 194.191406 C 213.160156 194.167969 213.125 194.164062 213.125 194.164062 C 216.402344 188.683594 218.742188 184.019531 218.742188 184.019531 C 219.457031 182.710938 219.425781 181.699219 219.164062 180.984375 C 218.785156 179.921875 217.632812 179.332031 216.550781 179.640625 C 214.734375 180.171875 213.785156 182.480469 213.785156 182.480469 C 213.785156 182.480469 215.175781 181.003906 216.386719 180.722656 C 216.914062 180.601562 217.472656 180.8125 217.765625 181.261719 C 218.332031 182.121094 217.542969 183.191406 217.246094 183.554688 C 217.128906 183.699219 216.972656 183.8125 216.789062 183.859375 C 216.351562 183.972656 216.09375 183.65625 216.023438 183.484375 C 215.714844 182.585938 217.199219 181.480469 217.207031 181.46875 C 215.957031 181.558594 215.503906 182.585938 215.355469 183.113281 C 215.289062 183.339844 215.277344 183.578125 215.335938 183.804688 C 215.4375 184.160156 215.660156 184.359375 215.910156 184.476562 C 216.386719 184.703125 216.960938 184.597656 217.34375 184.226562 C 218.4375 183.191406 218.386719 181.746094 218.386719 181.746094 C 218.539062 182.097656 218.503906 182.539062 218.421875 182.917969 C 218.328125 183.378906 218.136719 183.816406 217.886719 184.210938 C 216.390625 186.601562 214.402344 186.390625 214.402344 186.390625 C 215.269531 186.90625 216.402344 186.726562 216.402344 186.726562 L 214.972656 189.027344 C 214.371094 189.972656 212.410156 189.859375 212.410156 189.859375 C 212.882812 190.242188 213.601562 190.210938 213.601562 190.210938 C 212.992188 190.558594 211.738281 190.453125 211.738281 190.453125 C 212.476562 191.046875 213.703125 190.847656 213.703125 190.847656 L 211 194.972656 C 207.074219 194.148438 206.097656 197.058594 206.097656 197.058594 C 207.609375 195.371094 210.273438 196.363281 210.273438 196.363281 C 210.625 199.132812 214.117188 199.183594 214.117188 199.183594 C 214.328125 199.957031 214.152344 200.617188 213.902344 201.101562 C 213.703125 201.488281 213.40625 201.832031 213.0625 202.105469 C 211.507812 203.335938 210.945312 204.417969 210.945312 204.417969 C 211.683594 203.800781 212.84375 203.441406 212.84375 203.441406 C 210.390625 205.242188 209.398438 207.8125 209.398438 207.8125 C 212.765625 203.40625 214.6875 204.191406 214.6875 204.191406 C 214.722656 204.324219 214.738281 204.460938 214.738281 204.59375 C 214.738281 205.015625 214.59375 205.425781 214.351562 205.769531 C 213.128906 207.472656 211.039062 209.425781 211.039062 209.425781 C 212.160156 208.652344 214.710938 206.519531 215.1875 206.089844 C 216.980469 204.472656 218.949219 203.851562 218.96875 203.835938 C 218.96875 203.835938 216.851562 204.011719 216.894531 201.160156 " fill-opacity="1" fill-rule="nonzero"/><g clip-path="url(#6affa76100)"><path fill="#ffffff" d="M 219.597656 203.574219 C 219.597656 203.574219 222.746094 201.714844 225.085938 201.117188 C 225.808594 200.933594 226.582031 201.027344 227.203125 201.445312 C 227.472656 201.621094 227.730469 201.871094 227.953125 202.214844 C 226.085938 201.847656 225.230469 203.496094 226.074219 203.921875 C 226.511719 204.152344 227.269531 203.789062 227.164062 202.714844 C 227.164062 202.714844 227.636719 202.914062 227.636719 203.53125 C 227.632812 204.027344 227.34375 204.476562 226.910156 204.722656 C 225.609375 205.460938 221.53125 207.667969 215.941406 209.828125 C 215.941406 209.828125 218.476562 208.394531 218.625 206.226562 C 218.625 206.226562 219.113281 206.550781 219.195312 207.300781 C 219.195312 207.300781 219.550781 206.324219 219.003906 205.433594 C 219.003906 205.433594 219.953125 206.007812 219.957031 207.085938 C 219.957031 207.085938 220.855469 206.707031 221.882812 206.242188 C 222.558594 205.929688 222.996094 205.261719 223 204.515625 C 223 204.382812 222.996094 204.257812 222.988281 204.132812 C 222.988281 204.132812 223.289062 204.867188 223.324219 205.269531 C 223.324219 205.269531 223.433594 204.621094 223.445312 204.34375 C 223.445312 204.34375 223.679688 204.921875 223.753906 205.433594 C 223.753906 205.433594 224.9375 204.878906 225.730469 204.535156 C 225.730469 204.535156 225.335938 204.476562 225.046875 204.15625 C 224.488281 203.539062 224.882812 202.332031 225.5625 202 C 225.5625 202 223.988281 201.707031 219.597656 203.574219 " fill-opacity="1" fill-rule="nonzero"/></g><path fill="#ffffff" d="M 159.398438 183.410156 C 159.398438 183.410156 162.546875 186.144531 164.796875 191.179688 C 167.050781 196.214844 170.898438 197.242188 172.753906 197.40625 C 172.753906 197.40625 169.195312 196.824219 166.023438 190.675781 C 162.71875 184.265625 159.398438 183.410156 159.398438 183.410156 " fill-opacity="1" fill-rule="nonzero"/><path fill="#ffffff" d="M 149.328125 205.371094 C 147.902344 204.878906 147.746094 203.917969 147.746094 203.917969 C 148.449219 203.679688 149.195312 203.71875 149.488281 204.324219 C 149.765625 204.886719 149.328125 205.371094 149.328125 205.371094 Z M 151.421875 206.074219 L 150.101562 205.664062 C 150.101562 205.664062 151.476562 204.367188 149.398438 203.3125 C 149.398438 203.3125 151.019531 203.425781 151.210938 202.574219 C 151.210938 202.574219 149.269531 201.976562 148.011719 202.566406 C 147.21875 202.929688 146.9375 203.914062 147.417969 204.640625 C 147.695312 205.058594 148.210938 205.527344 149.160156 205.9375 C 149.453125 206.0625 149.757812 206.164062 150.070312 206.246094 L 151.167969 206.550781 C 151.707031 206.695312 152.292969 206.472656 152.566406 205.992188 C 152.632812 205.875 152.679688 205.746094 152.71875 205.59375 C 152.71875 205.59375 152.316406 206.3125 151.421875 206.074219 " fill-opacity="1" fill-rule="nonzero"/><path fill="#ffffff" d="M 153.761719 206.828125 C 154.910156 207.5625 156.296875 208.453125 156.960938 208.882812 C 157.140625 208.996094 157.378906 208.9375 157.496094 208.753906 C 157.699219 208.425781 158.039062 208.242188 158.039062 208.242188 C 157.476562 209.167969 157.9375 210.304688 157.9375 210.304688 C 155.804688 208.992188 154.304688 208.039062 153.402344 207.46875 C 152.5 206.894531 153.136719 205.796875 153.136719 205.796875 C 153.136719 205.796875 153.082031 206.390625 153.761719 206.828125 " fill-opacity="1" fill-rule="nonzero"/><g clip-path="url(#2bc24d29e2)"><path fill="#ed155d" d="M 211.777344 174.433594 C 210.953125 171.746094 208.445312 168.339844 209.757812 163.183594 C 209.757812 163.183594 211.84375 155.664062 207.914062 151.332031 C 207.914062 151.332031 209.875 155.453125 207.867188 159.128906 C 205.582031 163.316406 200.699219 160.792969 201.941406 155.019531 C 202.699219 151.5 208.683594 144.160156 199.023438 131.75 C 194.238281 125.605469 197.71875 120.792969 197.71875 120.78125 C 193.277344 122.664062 194.472656 129.089844 194.472656 129.089844 C 195.265625 132.75 193.300781 133.460938 193.300781 133.460938 C 193.300781 133.460938 189.3125 135.234375 187.953125 127.1875 C 186.542969 118.835938 192.714844 112.6875 192.714844 112.6875 C 185.4375 115.769531 180.636719 124.332031 182.609375 132.199219 C 184.878906 141.265625 179.15625 140.71875 177.675781 138.300781 C 175.683594 135.050781 178.035156 131.875 178.035156 131.875 C 167.582031 140.730469 171.984375 151.066406 172.671875 152.507812 C 176.175781 159.847656 169.683594 163.851562 167.105469 159.128906 C 165.097656 155.453125 167.054688 151.332031 167.054688 151.332031 C 163.125 155.664062 165.214844 163.183594 165.214844 163.183594 C 166.527344 168.339844 164.015625 171.746094 163.195312 174.433594 C 159.359375 187.003906 174.988281 191.535156 174.988281 191.535156 C 158.671875 178.558594 174.007812 172.558594 168.742188 163.835938 C 171.972656 167.332031 178.578125 165.179688 178.695312 159.246094 C 178.816406 153.191406 171.800781 147.277344 175.382812 140.902344 C 174.96875 144.21875 178.761719 149.628906 183.730469 147.621094 C 189.789062 145.171875 186.972656 136.222656 186.613281 133.804688 C 189.257812 139.414062 195.128906 137.085938 196.484375 134.414062 C 196.484375 134.414062 202.609375 140.578125 200.515625 147.578125 C 199.402344 152.902344 194.925781 160.105469 200.621094 165.074219 C 200.621094 165.074219 203.289062 166.96875 205.542969 165.675781 C 204.613281 173.214844 216.125 176.121094 199.984375 191.535156 C 199.984375 191.535156 215.613281 187.003906 211.777344 174.433594 " fill-opacity="1" fill-rule="nonzero"/></g><path fill="#ed155d" d="M 196.105469 136.902344 C 196.335938 137.074219 196.542969 137.273438 196.746094 137.480469 C 196.945312 137.683594 197.132812 137.902344 197.316406 138.125 C 197.675781 138.578125 197.992188 139.058594 198.273438 139.566406 C 198.828125 140.585938 199.21875 141.710938 199.40625 142.871094 L 199.460938 143.300781 C 199.484375 143.445312 199.488281 143.597656 199.5 143.742188 L 199.515625 143.960938 L 199.515625 144.183594 C 199.515625 144.328125 199.527344 144.476562 199.515625 144.621094 L 199.5 145.058594 C 199.488281 145.210938 199.46875 145.355469 199.449219 145.5 C 199.429688 145.792969 199.363281 146.074219 199.3125 146.363281 C 199.050781 147.5 198.597656 148.582031 197.9375 149.519531 C 198.21875 148.410156 198.441406 147.328125 198.535156 146.246094 C 198.570312 145.703125 198.597656 145.164062 198.574219 144.628906 C 198.574219 144.488281 198.558594 144.355469 198.550781 144.222656 L 198.539062 144.023438 L 198.519531 143.824219 C 198.507812 143.691406 198.496094 143.550781 198.480469 143.417969 L 198.417969 143.019531 C 198.253906 141.960938 197.964844 140.917969 197.566406 139.898438 C 197.371094 139.386719 197.148438 138.886719 196.90625 138.390625 C 196.660156 137.890625 196.394531 137.398438 196.105469 136.902344 " fill-opacity="1" fill-rule="nonzero"/><path fill="#ed155d" d="M 169.921875 174.789062 C 169.574219 175.546875 169.394531 176.351562 169.304688 177.152344 C 169.230469 177.953125 169.246094 178.753906 169.367188 179.539062 C 169.488281 180.328125 169.699219 181.097656 169.976562 181.847656 L 170.199219 182.402344 C 170.277344 182.585938 170.367188 182.761719 170.449219 182.945312 C 170.527344 183.128906 170.625 183.304688 170.71875 183.484375 C 170.816406 183.65625 170.898438 183.839844 171.007812 184.011719 L 171.308594 184.53125 C 171.414062 184.699219 171.53125 184.863281 171.636719 185.035156 L 171.800781 185.292969 C 171.855469 185.375 171.917969 185.457031 171.972656 185.539062 C 172.089844 185.703125 172.210938 185.867188 172.328125 186.035156 C 172.445312 186.199219 172.574219 186.355469 172.695312 186.515625 C 172.820312 186.675781 172.9375 186.84375 173.066406 187 L 173.460938 187.46875 C 173.585938 187.625 173.714844 187.785156 173.851562 187.9375 C 174.921875 189.171875 176.089844 190.34375 177.257812 191.535156 C 175.828125 190.671875 174.496094 189.644531 173.289062 188.472656 C 172.976562 188.191406 172.695312 187.875 172.402344 187.570312 C 172.257812 187.421875 172.125 187.253906 171.984375 187.09375 C 171.847656 186.933594 171.707031 186.777344 171.574219 186.609375 C 171.445312 186.445312 171.320312 186.273438 171.191406 186.101562 C 171.125 186.019531 171.058594 185.933594 170.996094 185.847656 L 170.820312 185.585938 C 170.703125 185.40625 170.582031 185.230469 170.464844 185.054688 L 170.136719 184.503906 C 169.722656 183.753906 169.355469 182.980469 169.085938 182.15625 C 168.816406 181.335938 168.640625 180.484375 168.589844 179.625 C 168.535156 178.765625 168.617188 177.894531 168.824219 177.0625 C 168.933594 176.652344 169.074219 176.246094 169.257812 175.863281 C 169.4375 175.476562 169.648438 175.109375 169.921875 174.789062 " fill-opacity="1" fill-rule="nonzero"/><path fill="#ffffff" d="M 159.308594 201.566406 C 158.464844 202.183594 158.1875 203.777344 158.1875 203.777344 C 157.550781 199.109375 160.65625 200.585938 159.308594 201.566406 Z M 164.507812 196.96875 C 164.921875 196.746094 165.4375 196.566406 166.023438 196.566406 C 166.023438 196.566406 165.152344 196.070312 164.160156 196.292969 C 164.160156 196.292969 164.128906 194.691406 163.460938 193.230469 C 163.460938 193.230469 163.539062 194.351562 163.023438 195.050781 C 163.023438 195.050781 162.40625 193.625 161.066406 192.195312 C 161.066406 192.195312 161.914062 192.023438 162.0625 190.765625 C 162.0625 190.765625 160.792969 191.972656 160.132812 191.082031 C 159.953125 190.835938 159.75 190.148438 160.765625 189.421875 C 160.765625 189.421875 159.863281 189.300781 159.492188 190.105469 C 159.492188 190.105469 156.679688 185.757812 154.011719 183.410156 C 154.011719 183.410156 157.3125 187.863281 159.097656 190.714844 C 159.097656 190.714844 159.097656 192.039062 160.390625 192.503906 C 160.390625 192.503906 161.847656 194.195312 162.46875 196.015625 C 162.800781 196.984375 162.5625 198.078125 161.792969 198.753906 C 161.558594 198.960938 161.277344 199.125 160.9375 199.214844 C 160.9375 199.214844 159.445312 197.042969 161.320312 195.421875 C 161.320312 195.421875 160.707031 195.390625 160.039062 196.027344 C 159.375 196.671875 158.777344 198.171875 159.164062 199.214844 C 159.164062 199.214844 158.953125 199.28125 158.660156 199.476562 C 158.039062 199.886719 157.609375 200.523438 157.4375 201.246094 C 157.285156 201.882812 157.125 202.863281 157.210938 203.921875 C 157.210938 203.921875 154.746094 203.046875 152.109375 202.746094 C 152.109375 202.746094 152.011719 203.746094 153.589844 204.085938 C 155.171875 204.421875 157.035156 204.699219 158.027344 207.128906 C 159.023438 209.558594 161.054688 209.890625 161.054688 209.890625 C 161.054688 209.890625 158.214844 208.171875 158.492188 205.851562 C 158.59375 205 159.511719 204.496094 160.265625 204.886719 C 160.4375 204.976562 160.617188 205.105469 160.800781 205.277344 C 161.492188 205.949219 162.75 207.039062 163.972656 207.46875 C 163.972656 207.46875 160.539062 205.054688 160.277344 202.382812 C 160.222656 201.800781 160.421875 201.207031 160.855469 200.8125 C 161.367188 200.339844 162.300781 200.023438 163.972656 200.769531 C 163.972656 200.769531 163.925781 200.722656 163.855469 200.652344 C 162.824219 199.507812 163.152344 197.695312 164.507812 196.96875 " fill-opacity="1" fill-rule="nonzero"/><path fill="#ffffff" d="M 190.59375 163.421875 C 190.46875 163.492188 190.316406 163.527344 190.15625 163.503906 C 189.855469 163.464844 189.613281 163.222656 189.574219 162.921875 C 189.550781 162.761719 189.585938 162.605469 189.65625 162.484375 C 189.734375 162.34375 189.953125 162.398438 189.941406 162.5625 C 189.941406 162.601562 189.945312 162.644531 189.953125 162.6875 C 189.996094 162.910156 190.167969 163.082031 190.382812 163.125 C 190.433594 163.132812 190.472656 163.136719 190.515625 163.132812 C 190.679688 163.125 190.734375 163.34375 190.59375 163.421875 Z M 189.003906 167.109375 C 188.875 167.179688 188.71875 167.214844 188.558594 167.191406 C 188.261719 167.148438 188.023438 166.910156 187.976562 166.609375 C 187.953125 166.449219 187.988281 166.296875 188.058594 166.171875 C 188.144531 166.03125 188.355469 166.089844 188.347656 166.25 C 188.347656 166.292969 188.347656 166.332031 188.359375 166.382812 C 188.398438 166.597656 188.574219 166.769531 188.792969 166.8125 C 188.835938 166.820312 188.882812 166.824219 188.925781 166.820312 C 189.082031 166.8125 189.140625 167.03125 189.003906 167.109375 Z M 187.394531 170.996094 C 187.265625 171.066406 187.117188 171.101562 186.957031 171.078125 C 186.65625 171.039062 186.417969 170.796875 186.375 170.496094 C 186.351562 170.335938 186.386719 170.1875 186.457031 170.058594 C 186.535156 169.917969 186.75 169.976562 186.746094 170.136719 C 186.742188 170.179688 186.746094 170.226562 186.75 170.269531 C 186.796875 170.484375 186.96875 170.65625 187.183594 170.703125 C 187.234375 170.707031 187.273438 170.710938 187.316406 170.707031 C 187.476562 170.703125 187.535156 170.917969 187.394531 170.996094 Z M 185.824219 175.199219 C 185.699219 175.269531 185.546875 175.304688 185.386719 175.28125 C 185.089844 175.238281 184.84375 175 184.804688 174.699219 C 184.78125 174.539062 184.816406 174.382812 184.886719 174.257812 C 184.964844 174.125 185.183594 174.179688 185.175781 174.339844 C 185.171875 174.378906 185.175781 174.421875 185.183594 174.46875 C 185.226562 174.683594 185.398438 174.859375 185.613281 174.90625 C 185.660156 174.910156 185.703125 174.917969 185.75 174.910156 C 185.910156 174.90625 185.964844 175.121094 185.824219 175.199219 Z M 184.265625 179.058594 C 184.140625 179.128906 183.988281 179.164062 183.828125 179.140625 C 183.53125 179.097656 183.285156 178.851562 183.246094 178.558594 C 183.226562 178.398438 183.257812 178.242188 183.332031 178.117188 C 183.40625 177.976562 183.625 178.039062 183.617188 178.191406 C 183.613281 178.238281 183.617188 178.28125 183.625 178.328125 C 183.667969 178.542969 183.839844 178.71875 184.058594 178.757812 C 184.101562 178.769531 184.144531 178.769531 184.191406 178.769531 C 184.351562 178.765625 184.40625 178.976562 184.265625 179.058594 Z M 182.625 183.363281 C 182.5 183.4375 182.34375 183.46875 182.183594 183.445312 C 181.882812 183.40625 181.644531 183.160156 181.601562 182.863281 C 181.578125 182.703125 181.609375 182.550781 181.683594 182.425781 C 181.765625 182.285156 181.976562 182.339844 181.972656 182.503906 C 181.972656 182.546875 181.972656 182.589844 181.984375 182.636719 C 182.023438 182.851562 182.199219 183.023438 182.414062 183.066406 C 182.460938 183.074219 182.503906 183.078125 182.546875 183.078125 C 182.710938 183.066406 182.765625 183.285156 182.625 183.363281 Z M 193.878906 155.640625 C 193.753906 155.789062 193.679688 155.890625 193.601562 155.984375 C 192.929688 156.820312 191.753906 156.675781 191.453125 155.695312 C 191.109375 154.558594 191.222656 153.0625 191.34375 152.152344 C 191.359375 152.023438 191.175781 151.96875 191.121094 152.089844 L 176.394531 183.261719 C 175.894531 184.328125 176.066406 185.589844 176.84375 186.476562 L 180.835938 191.046875 L 180.835938 207.429688 C 181.265625 208.117188 181.777344 208.8125 182.382812 209.496094 C 182.382812 209.496094 182.382812 208.34375 182.382812 206.53125 C 182.382812 206.507812 182.382812 206.484375 182.382812 206.464844 C 182.394531 205.230469 182.394531 204.035156 182.382812 202.886719 C 182.382812 202.851562 182.382812 202.820312 182.382812 202.792969 C 182.382812 201.964844 182.382812 201.101562 182.382812 200.207031 C 182.382812 200.179688 182.382812 200.148438 182.382812 200.121094 C 182.394531 197.261719 182.394531 194.269531 182.382812 191.347656 C 182.382812 191.324219 182.382812 191.292969 182.382812 191.261719 C 182.382812 191.234375 182.382812 191.207031 182.382812 191.179688 C 182.382812 191.152344 182.382812 191.125 182.382812 191.109375 C 182.382812 190.738281 182.386719 190.371094 182.394531 190.003906 C 182.398438 189.964844 182.398438 189.925781 182.398438 189.886719 C 182.394531 189.089844 182.195312 188.398438 182.433594 187.609375 C 182.433594 187.570312 182.433594 187.53125 182.433594 187.492188 C 182.433594 186.933594 182.414062 186.371094 182.382812 185.796875 C 182.382812 185.769531 182.382812 185.734375 182.382812 185.707031 C 182.382812 184.835938 182.382812 184.328125 182.382812 184.328125 L 182.203125 184.328125 C 182.164062 184.328125 182.121094 184.328125 182.082031 184.320312 C 181.753906 184.296875 181.4375 184.15625 181.199219 183.925781 C 180.957031 183.707031 180.800781 183.394531 180.757812 183.074219 C 180.707031 182.75 180.78125 182.414062 180.941406 182.136719 C 181.101562 181.859375 181.355469 181.640625 181.648438 181.527344 C 181.945312 181.410156 182.265625 181.398438 182.566406 181.476562 C 182.863281 181.558594 183.128906 181.746094 183.292969 182.003906 C 183.457031 182.253906 183.523438 182.5625 183.464844 182.835938 C 183.359375 182.285156 182.957031 181.886719 182.488281 181.78125 C 182.253906 181.71875 182.003906 181.753906 181.792969 181.859375 C 181.582031 181.964844 181.410156 182.136719 181.304688 182.339844 C 181.207031 182.539062 181.179688 182.777344 181.21875 182.996094 C 181.257812 183.21875 181.371094 183.417969 181.535156 183.566406 C 181.695312 183.714844 181.90625 183.8125 182.128906 183.832031 C 182.15625 183.839844 182.183594 183.839844 182.210938 183.839844 L 182.308594 183.839844 L 182.515625 183.84375 C 182.574219 183.84375 182.632812 183.84375 182.691406 183.84375 L 182.929688 183.84375 C 182.929688 183.84375 182.929688 185.164062 182.929688 187.210938 C 182.9375 187.265625 182.9375 187.292969 182.9375 187.328125 C 182.941406 187.363281 182.941406 187.402344 182.941406 187.441406 C 182.941406 187.480469 182.941406 187.519531 182.941406 187.558594 C 182.59375 187.898438 182.59375 188.195312 182.929688 188.496094 C 182.929688 188.535156 182.925781 188.574219 182.925781 188.613281 C 182.890625 189.421875 182.835938 190.222656 182.929688 191.042969 C 182.929688 191.0625 182.929688 191.089844 182.929688 191.121094 C 182.929688 191.207031 182.929688 191.292969 182.929688 191.375 C 182.929688 191.402344 182.929688 191.429688 182.929688 191.464844 C 182.890625 192.878906 182.890625 194.175781 182.929688 195.578125 C 182.929688 195.605469 182.929688 195.640625 182.929688 195.667969 C 182.929688 195.699219 182.929688 195.734375 182.929688 195.761719 C 182.890625 197.164062 182.890625 198.65625 182.929688 200.007812 C 182.929688 200.035156 182.929688 200.0625 182.929688 200.097656 C 182.929688 201.078125 182.929688 202.03125 182.929688 202.941406 C 182.929688 202.976562 182.929688 203.003906 182.929688 203.035156 C 182.890625 204.234375 182.890625 205.332031 182.929688 206.550781 C 182.929688 206.574219 182.929688 206.597656 182.929688 206.625 C 182.929688 208.726562 182.929688 210.089844 182.929688 210.089844 C 183.164062 210.328125 183.40625 210.5625 183.664062 210.789062 C 183.71875 210.839844 183.769531 210.882812 183.816406 210.9375 C 183.886719 211.011719 183.984375 211.011719 183.984375 211.210938 C 183.984375 210.910156 183.984375 210.511719 183.980469 210.21875 C 183.980469 210.195312 183.980469 210.171875 183.980469 210.152344 C 183.980469 209.957031 183.980469 209.734375 183.980469 209.484375 C 183.980469 209.453125 183.980469 209.429688 183.980469 209.40625 C 183.984375 209.417969 183.984375 209.519531 183.984375 209.519531 C 183.984375 209.21875 183.984375 208.820312 183.980469 208.566406 C 183.980469 208.519531 183.980469 208.488281 183.980469 208.449219 C 183.980469 208.242188 183.980469 208.027344 183.980469 207.800781 C 183.980469 207.761719 183.980469 207.722656 183.980469 207.6875 C 183.984375 207.722656 183.984375 207.820312 183.984375 207.820312 C 184.183594 206.128906 183.785156 204.332031 183.980469 202.664062 C 183.980469 202.636719 183.980469 202.609375 183.980469 202.582031 C 183.980469 199.84375 183.980469 196.730469 183.980469 193.714844 C 183.980469 193.679688 183.980469 193.652344 183.980469 193.625 C 184.085938 192.976562 183.984375 192.179688 183.980469 191.519531 C 183.984375 191.480469 183.984375 191.441406 183.984375 191.402344 C 183.984375 190.214844 183.984375 188.96875 183.980469 187.769531 C 183.980469 187.738281 183.980469 187.703125 183.980469 187.664062 C 183.980469 183.273438 183.980469 180.023438 183.980469 180.023438 L 183.914062 180.027344 L 183.808594 180.027344 C 183.761719 180.027344 183.722656 180.023438 183.683594 180.023438 C 183.351562 179.996094 183.035156 179.851562 182.796875 179.625 C 182.558594 179.402344 182.402344 179.097656 182.355469 178.769531 C 182.304688 178.449219 182.375 178.117188 182.539062 177.839844 C 182.621094 177.695312 182.71875 177.570312 182.84375 177.472656 C 182.871094 177.445312 182.898438 177.417969 182.925781 177.394531 C 183.1875 177.132812 183.585938 176.734375 183.890625 177.128906 C 183.921875 177.132812 183.953125 177.132812 183.984375 177.140625 C 184.046875 177.144531 184.105469 177.160156 184.167969 177.171875 C 184.46875 177.257812 184.726562 177.449219 184.894531 177.699219 C 185.058594 177.949219 185.121094 178.261719 185.066406 178.539062 C 184.953125 177.988281 184.554688 177.589844 184.089844 177.476562 C 184 177.460938 183.90625 177.449219 183.816406 177.449219 C 183.789062 177.449219 183.761719 177.457031 183.730469 177.460938 C 183.585938 177.632812 183.386719 177.433594 183.246094 177.644531 C 183.21875 177.660156 183.195312 177.683594 183.175781 177.707031 C 183.0625 177.800781 182.976562 177.910156 182.910156 178.039062 C 182.804688 178.242188 182.777344 178.476562 182.816406 178.699219 C 182.851562 178.917969 182.96875 179.121094 183.128906 179.269531 C 183.296875 179.417969 183.507812 179.511719 183.722656 179.535156 C 183.75 179.535156 183.78125 179.535156 183.808594 179.539062 L 184.117188 179.539062 C 184.25 179.546875 184.390625 179.550781 184.527344 179.550781 C 184.527344 179.550781 184.527344 182.902344 184.527344 187.433594 C 184.527344 187.460938 184.527344 187.488281 184.527344 187.515625 C 184.488281 188.894531 184.484375 190.289062 184.511719 191.695312 C 184.511719 191.734375 184.511719 191.777344 184.511719 191.816406 C 184.484375 192.378906 184.484375 193.078125 184.527344 193.679688 C 184.527344 193.710938 184.527344 193.738281 184.527344 193.769531 C 184.527344 196.699219 184.527344 199.714844 184.527344 202.402344 C 184.527344 202.433594 184.527344 202.460938 184.527344 202.488281 C 184.484375 202.84375 184.484375 203.242188 184.527344 203.683594 C 184.527344 203.707031 184.527344 203.734375 184.527344 203.761719 C 184.527344 204.667969 184.527344 205.53125 184.527344 206.324219 C 184.527344 206.347656 184.527344 206.367188 184.527344 206.390625 C 184.484375 206.828125 184.484375 207.324219 184.527344 207.671875 C 184.527344 207.714844 184.527344 207.753906 184.527344 207.792969 C 184.527344 208.03125 184.527344 208.265625 184.527344 208.480469 C 184.527344 208.519531 184.527344 208.554688 184.527344 208.597656 C 184.484375 208.820312 184.484375 209.121094 184.527344 209.328125 C 184.527344 209.339844 184.527344 209.375 184.527344 209.40625 C 184.527344 209.691406 184.527344 209.945312 184.527344 210.179688 C 184.527344 210.207031 184.527344 210.226562 184.527344 210.257812 C 184.484375 210.511719 184.484375 210.710938 184.527344 211.019531 C 184.527344 211.039062 184.527344 211.066406 184.527344 211.097656 C 184.527344 211.363281 184.527344 211.507812 184.527344 211.507812 C 184.859375 211.765625 185.210938 212.015625 185.574219 212.253906 C 185.574219 212.253906 185.574219 202.242188 185.574219 192.765625 C 185.574219 192.738281 185.574219 192.710938 185.574219 192.683594 C 185.382812 191.578125 185.679688 190.585938 185.574219 189.5 C 185.574219 189.472656 185.574219 189.445312 185.574219 189.417969 C 185.574219 187.304688 185.574219 185.285156 185.574219 183.496094 C 185.574219 183.46875 185.574219 183.4375 185.574219 183.417969 C 185.582031 183.339844 185.585938 183.261719 185.59375 183.183594 C 185.59375 183.105469 185.597656 183.027344 185.597656 182.957031 C 185.605469 182.882812 185.605469 182.8125 185.605469 182.730469 C 185.609375 182.644531 185.609375 182.570312 185.609375 182.492188 C 185.613281 181.097656 185.5 179.707031 185.574219 178.292969 C 185.574219 178.265625 185.574219 178.230469 185.574219 178.203125 C 185.574219 176.921875 185.574219 176.175781 185.574219 176.175781 L 185.507812 176.179688 L 185.402344 176.179688 C 185.367188 176.179688 185.320312 176.179688 185.28125 176.175781 C 184.953125 176.148438 184.640625 176.003906 184.402344 175.78125 C 184.15625 175.554688 184 175.242188 183.957031 174.921875 C 183.90625 174.601562 183.972656 174.265625 184.132812 173.988281 C 184.234375 173.816406 184.363281 173.675781 184.515625 173.5625 C 184.539062 173.539062 184.566406 173.523438 184.59375 173.507812 C 184.984375 172.949219 185.679688 173.445312 186.253906 173.578125 C 186.273438 173.601562 186.296875 173.625 186.320312 173.644531 C 186.386719 173.707031 186.441406 173.777344 186.492188 173.851562 C 186.65625 174.105469 186.722656 174.410156 186.664062 174.6875 C 186.597656 174.332031 186.402344 174.046875 186.152344 173.851562 C 186.125 173.828125 186.097656 173.8125 186.070312 173.789062 C 185.679688 173.644531 185.28125 173.347656 184.910156 173.75 C 184.886719 173.769531 184.867188 173.785156 184.84375 173.800781 C 184.699219 173.902344 184.582031 174.039062 184.507812 174.191406 C 184.40625 174.394531 184.378906 174.628906 184.417969 174.847656 C 184.457031 175.070312 184.574219 175.269531 184.734375 175.421875 C 184.894531 175.570312 185.105469 175.664062 185.328125 175.6875 C 185.355469 175.6875 185.382812 175.691406 185.410156 175.691406 L 185.714844 175.691406 C 185.726562 175.691406 185.738281 175.699219 185.75 175.699219 L 186.125 175.699219 C 186.125 175.699219 186.125 176.777344 186.125 178.574219 C 186.125 178.613281 186.125 178.648438 186.125 178.6875 C 186.019531 179.777344 186.191406 180.898438 186.207031 181.976562 C 186.207031 182.019531 186.214844 182.058594 186.214844 182.097656 C 186.179688 183.316406 186.03125 184.519531 186.085938 185.742188 C 186.085938 185.777344 186.085938 185.816406 186.09375 185.863281 C 186.28125 186.699219 186.28125 187.398438 186.125 188.1875 C 186.125 188.226562 186.125 188.261719 186.125 188.300781 C 186.125 188.757812 186.125 189.210938 186.125 189.671875 C 186.125 189.695312 186.125 189.714844 186.125 189.738281 C 186.082031 190.585938 186.082031 191.484375 186.125 192.289062 C 186.125 192.332031 186.125 192.371094 186.125 192.410156 C 186.125 192.496094 186.125 192.578125 186.125 192.660156 C 186.125 192.6875 186.125 192.710938 186.125 192.734375 C 186.28125 193.875 186.28125 194.867188 186.125 196 C 186.125 196.03125 186.125 196.058594 186.125 196.09375 C 186.125 196.832031 186.125 197.570312 186.125 198.289062 C 186.125 198.324219 186.125 198.351562 186.125 198.382812 C 186.082031 198.753906 186.082031 199.15625 186.125 199.554688 C 186.125 199.582031 186.125 199.609375 186.125 199.640625 C 186.125 206.710938 186.125 212.597656 186.125 212.597656 C 186.464844 212.796875 186.8125 212.984375 187.179688 213.167969 C 187.179688 213.167969 187.179688 210.210938 187.179688 205.882812 C 187.179688 205.851562 187.179688 205.824219 187.179688 205.796875 C 187.472656 204.933594 187.074219 203.933594 187.074219 202.941406 C 186.972656 202.742188 187.171875 202.441406 187.179688 202.164062 C 187.179688 202.144531 187.179688 202.121094 187.179688 202.097656 C 187.179688 200.914062 187.179688 199.675781 187.179688 198.40625 C 187.179688 198.371094 187.179688 198.34375 187.179688 198.316406 C 187.171875 197.757812 187.171875 197.164062 187.179688 196.605469 C 187.179688 196.570312 187.179688 196.542969 187.179688 196.507812 C 187.179688 194.417969 187.179688 192.265625 187.179688 190.15625 C 187.179688 190.132812 187.179688 190.109375 187.179688 190.09375 C 187.171875 189.6875 187.171875 189.191406 187.179688 188.816406 C 187.179688 188.796875 187.179688 188.773438 187.179688 188.75 C 187.179688 185.640625 187.179688 182.652344 187.179688 180.074219 C 187.179688 180.050781 187.179688 180.027344 187.179688 180 C 187.171875 178.433594 187.171875 176.835938 187.179688 175.28125 C 187.179688 175.25 187.179688 175.214844 187.179688 175.183594 C 187.179688 174.75 187.179688 174.351562 187.179688 173.996094 C 187.179688 173.96875 187.179688 173.933594 187.179688 173.90625 C 186.972656 173.546875 186.972656 173.148438 187.179688 172.796875 C 187.179688 172.757812 187.179688 172.71875 187.179688 172.6875 C 187.179688 172.199219 187.179688 171.9375 187.179688 171.9375 L 187 171.9375 C 186.960938 171.9375 186.921875 171.9375 186.878906 171.933594 C 186.550781 171.910156 186.234375 171.765625 185.996094 171.539062 C 185.757812 171.3125 185.597656 171.007812 185.554688 170.679688 C 185.503906 170.359375 185.574219 170.023438 185.738281 169.746094 C 185.898438 169.464844 186.152344 169.25 186.445312 169.136719 C 186.742188 169.019531 187.066406 169.011719 187.363281 169.089844 C 187.660156 169.164062 187.925781 169.359375 188.089844 169.609375 C 188.253906 169.863281 188.320312 170.175781 188.265625 170.445312 C 188.15625 169.898438 187.753906 169.5 187.285156 169.394531 C 187.050781 169.332031 186.800781 169.363281 186.589844 169.46875 C 186.378906 169.574219 186.207031 169.746094 186.109375 169.953125 C 186.003906 170.152344 185.976562 170.390625 186.015625 170.605469 C 186.054688 170.828125 186.167969 171.027344 186.332031 171.179688 C 186.496094 171.328125 186.707031 171.421875 186.921875 171.445312 C 186.953125 171.449219 186.980469 171.449219 187.007812 171.449219 L 187.105469 171.449219 L 187.316406 171.457031 L 187.726562 171.457031 C 187.726562 171.457031 187.726562 172 187.726562 172.96875 C 187.726562 172.992188 187.726562 173.015625 187.726562 173.042969 C 187.574219 173.347656 187.773438 173.546875 187.726562 173.835938 C 187.726562 173.863281 187.726562 173.890625 187.726562 173.921875 C 187.726562 174.363281 187.726562 174.855469 187.726562 175.394531 C 187.726562 175.425781 187.726562 175.460938 187.726562 175.5 C 187.871094 177.035156 187.574219 178.433594 187.726562 179.878906 C 187.726562 179.902344 187.726562 179.921875 187.726562 179.945312 C 187.726562 186.265625 187.726562 194.960938 187.726562 201.90625 C 187.726562 201.933594 187.726562 201.960938 187.726562 201.988281 C 187.671875 202.242188 187.671875 202.640625 187.671875 202.941406 C 187.671875 202.941406 187.773438 202.941406 187.726562 202.984375 C 187.726562 203.007812 187.726562 203.035156 187.726562 203.0625 C 187.726562 203.605469 187.726562 204.140625 187.726562 204.65625 C 187.726562 204.683594 187.726562 204.707031 187.726562 204.734375 C 187.871094 205.230469 187.472656 205.632812 187.722656 206.082031 C 187.726562 206.109375 187.726562 206.128906 187.726562 206.15625 C 187.726562 210.484375 187.726562 213.429688 187.726562 213.429688 C 187.992188 213.550781 188.269531 213.667969 188.554688 213.777344 C 188.554688 213.777344 188.636719 213.753906 188.777344 213.699219 C 188.777344 213.699219 188.777344 212.921875 188.777344 211.570312 C 188.777344 211.542969 188.777344 211.515625 188.777344 211.488281 C 188.769531 210.210938 188.769531 208.917969 188.777344 207.648438 C 188.777344 207.628906 188.777344 207.605469 188.777344 207.582031 C 188.777344 203.390625 188.777344 197.535156 188.777344 191.613281 C 188.777344 191.585938 188.777344 191.558594 188.777344 191.523438 C 188.769531 190.1875 188.871094 188.890625 188.777344 187.613281 C 188.777344 187.582031 188.777344 187.554688 188.777344 187.527344 C 188.777344 187.039062 188.777344 186.550781 188.777344 186.0625 C 188.777344 186.035156 188.777344 186.007812 188.777344 185.980469 C 188.671875 185.007812 188.871094 184.109375 188.78125 183.078125 C 188.777344 183.039062 188.777344 183.007812 188.777344 182.96875 C 188.777344 182.929688 188.777344 182.894531 188.777344 182.855469 C 188.777344 182.828125 188.777344 182.800781 188.777344 182.769531 C 188.769531 182.3125 188.769531 181.820312 188.777344 181.296875 C 188.777344 181.269531 188.777344 181.242188 188.777344 181.214844 C 188.777344 180.550781 188.777344 179.902344 188.777344 179.269531 C 188.777344 179.246094 188.777344 179.226562 188.777344 179.203125 C 188.769531 177.832031 188.769531 176.433594 188.777344 175.011719 C 188.777344 174.984375 188.777344 174.953125 188.777344 174.925781 C 188.777344 174.171875 188.777344 173.46875 188.777344 172.820312 C 188.777344 172.796875 188.777344 172.777344 188.777344 172.753906 C 188.769531 172.15625 188.769531 171.457031 188.777344 170.828125 C 188.777344 170.789062 188.777344 170.757812 188.777344 170.722656 C 188.777344 170.351562 188.777344 170.015625 188.777344 169.710938 C 188.777344 169.675781 188.777344 169.636719 188.777344 169.597656 C 188.769531 169.164062 188.96875 168.667969 188.777344 168.304688 C 188.777344 168.277344 188.777344 168.25 188.777344 168.222656 C 188.777344 168.125 188.777344 168.074219 188.777344 168.074219 L 188.605469 168.074219 C 188.566406 168.074219 188.519531 168.074219 188.480469 168.066406 C 188.15625 168.039062 187.832031 167.902344 187.601562 167.675781 C 187.355469 167.445312 187.199219 167.140625 187.15625 166.820312 C 187.105469 166.5 187.171875 166.160156 187.335938 165.882812 C 187.496094 165.605469 187.75 165.382812 188.050781 165.273438 C 188.335938 165.15625 188.664062 165.144531 188.964844 165.222656 C 189.265625 165.300781 189.523438 165.496094 189.691406 165.75 C 189.855469 166 189.917969 166.308594 189.863281 166.582031 C 189.75 166.03125 189.359375 165.632812 188.886719 165.527344 C 188.652344 165.46875 188.398438 165.5 188.195312 165.605469 C 187.976562 165.707031 187.8125 165.882812 187.707031 166.082031 C 187.605469 166.289062 187.578125 166.519531 187.617188 166.742188 C 187.648438 166.964844 187.773438 167.164062 187.933594 167.3125 C 188.09375 167.464844 188.304688 167.558594 188.527344 167.578125 C 188.554688 167.578125 188.582031 167.585938 188.609375 167.585938 L 188.710938 167.585938 L 188.914062 167.589844 L 189.324219 167.589844 C 189.324219 167.589844 189.324219 167.789062 189.324219 168.160156 C 189.324219 168.191406 189.324219 168.210938 189.324219 168.234375 C 189.363281 169.019531 189.367188 169.691406 189.332031 170.429688 C 189.332031 170.472656 189.324219 170.511719 189.324219 170.550781 C 189.070312 171.15625 189.367188 171.855469 189.324219 172.414062 C 189.324219 172.453125 189.324219 172.492188 189.324219 172.53125 C 189.324219 173.308594 189.324219 174.160156 189.324219 175.070312 C 189.324219 175.105469 189.324219 175.132812 189.324219 175.160156 C 189.367188 176.636719 189.367188 178.132812 189.324219 179.644531 C 189.324219 179.667969 189.324219 179.691406 189.324219 179.710938 C 189.324219 180.199219 189.324219 180.695312 189.324219 181.191406 C 189.324219 181.222656 189.324219 181.25 189.324219 181.277344 C 189.269531 183.113281 189.367188 184.808594 189.324219 186.628906 C 189.324219 186.660156 189.324219 186.695312 189.324219 186.722656 C 189.324219 187.277344 189.324219 187.832031 189.324219 188.390625 C 189.324219 188.417969 189.324219 188.445312 189.324219 188.480469 C 189.367188 189.390625 189.367188 190.289062 189.324219 191.21875 C 189.324219 191.246094 189.324219 191.273438 189.324219 191.308594 C 189.324219 197.367188 189.324219 203.363281 189.324219 207.578125 C 189.320312 207.609375 189.320312 207.640625 189.320312 207.660156 C 189.167969 208.519531 189.46875 209.320312 189.324219 210.195312 C 189.324219 210.226562 189.324219 210.261719 189.324219 210.296875 C 189.324219 210.363281 189.324219 210.429688 189.324219 210.496094 C 189.324219 210.527344 189.324219 210.5625 189.324219 210.59375 C 189.367188 210.8125 189.367188 211.109375 189.324219 211.316406 C 189.324219 211.34375 189.324219 211.371094 189.324219 211.398438 C 189.324219 212.703125 189.324219 213.449219 189.324219 213.449219 C 189.613281 213.300781 189.972656 213.089844 190.378906 212.796875 C 190.378906 212.796875 190.378906 209.320312 190.378906 204.222656 C 190.378906 204.195312 190.378906 204.171875 190.378906 204.140625 C 190.363281 203.742188 190.363281 203.242188 190.378906 202.796875 C 190.378906 202.769531 190.378906 202.738281 190.378906 202.710938 C 190.378906 202.363281 190.378906 202.015625 190.378906 201.65625 C 190.378906 201.628906 190.378906 201.601562 190.378906 201.566406 C 190.460938 200.746094 190.460938 200.054688 190.378906 199.226562 C 190.378906 199.191406 190.378906 199.164062 190.378906 199.109375 C 190.378906 197.988281 190.378906 196.835938 190.378906 195.65625 C 190.378906 195.628906 190.378906 195.601562 190.378906 195.566406 C 190.261719 194.667969 190.363281 193.875 190.378906 192.9375 C 190.378906 192.90625 190.378906 192.871094 190.378906 192.84375 C 190.378906 192.417969 190.378906 191.984375 190.378906 191.550781 C 190.378906 191.523438 190.378906 191.492188 190.378906 191.457031 C 190.363281 190.984375 190.363281 190.585938 190.378906 190.132812 C 190.378906 190.109375 190.378906 190.089844 190.378906 190.066406 C 190.378906 183.589844 190.378906 176.96875 190.378906 172.066406 C 190.378906 172.03125 190.378906 172 190.378906 171.964844 C 190.363281 171.054688 190.363281 170.058594 190.371094 169.171875 C 190.371094 169.132812 190.371094 169.09375 190.371094 169.054688 C 190.363281 168.144531 190.367188 167.179688 190.378906 166.316406 C 190.378906 166.296875 190.378906 166.277344 190.378906 166.253906 C 190.378906 166.1875 190.378906 166.125 190.378906 166.066406 C 190.378906 166.042969 190.378906 166.015625 190.378906 165.992188 C 190.261719 165.476562 190.5625 164.878906 190.304688 164.363281 L 190.199219 164.363281 C 189.960938 164.378906 189.863281 164.179688 189.703125 164.273438 C 189.636719 164.246094 189.574219 164.226562 189.511719 164.191406 C 189.398438 164.128906 189.292969 164.054688 189.195312 163.957031 C 188.953125 163.738281 188.796875 163.425781 188.753906 163.105469 C 188.703125 162.78125 188.777344 162.449219 188.9375 162.171875 C 189.046875 161.972656 189.207031 161.8125 189.390625 161.691406 C 189.417969 161.675781 189.445312 161.65625 189.472656 161.640625 C 189.863281 161.390625 190.5625 161.191406 190.898438 161.65625 C 190.925781 161.675781 190.953125 161.691406 190.976562 161.707031 C 191.097656 161.796875 191.210938 161.90625 191.289062 162.035156 C 191.453125 162.289062 191.519531 162.59375 191.460938 162.871094 C 191.359375 162.363281 191.011719 161.980469 190.582031 161.839844 C 190.550781 161.828125 190.515625 161.824219 190.484375 161.8125 C 190.261719 161.789062 189.960938 161.789062 189.789062 161.894531 C 189.761719 161.90625 189.742188 161.917969 189.714844 161.933594 C 189.535156 162.039062 189.398438 162.195312 189.300781 162.371094 C 189.203125 162.578125 189.175781 162.8125 189.214844 163.03125 C 189.253906 163.253906 189.367188 163.453125 189.53125 163.605469 C 189.695312 163.753906 189.90625 163.847656 190.125 163.871094 C 190.152344 163.871094 190.179688 163.871094 190.207031 163.871094 L 190.304688 163.875 L 190.511719 163.875 C 190.515625 163.875 190.515625 163.875 190.515625 163.875 L 190.925781 163.875 C 190.925781 163.875 190.925781 164.003906 190.925781 164.234375 C 190.925781 164.261719 190.925781 164.285156 190.925781 164.320312 C 190.933594 164.457031 190.945312 164.605469 190.945312 164.761719 C 190.949219 164.800781 190.949219 164.835938 190.949219 164.878906 C 190.773438 165.917969 190.855469 166.957031 190.910156 168 C 190.917969 168.039062 190.917969 168.085938 190.917969 168.125 C 190.5625 169.460938 191.160156 170.65625 190.925781 171.960938 C 190.925781 171.992188 190.925781 172.03125 190.925781 172.070312 C 190.925781 174.9375 190.925781 178.359375 190.925781 181.96875 C 190.925781 182.003906 190.925781 182.03125 190.925781 182.0625 C 190.960938 182.972656 191.054688 183.832031 190.945312 184.765625 C 190.9375 184.804688 190.933594 184.847656 190.925781 184.886719 C 190.960938 185.300781 190.960938 185.601562 190.925781 185.957031 C 190.925781 185.984375 190.925781 186.011719 190.925781 186.039062 C 190.925781 186.25 190.925781 186.460938 190.925781 186.667969 C 190.925781 186.699219 190.925781 186.726562 190.925781 186.761719 C 190.960938 187.097656 190.960938 187.5 190.925781 187.746094 C 190.925781 187.777344 190.925781 187.808594 190.925781 187.835938 C 190.925781 188.539062 190.925781 189.238281 190.925781 189.945312 C 190.925781 189.972656 190.925781 190.003906 190.925781 190.03125 C 191.160156 191.484375 190.660156 193.078125 190.925781 194.550781 C 190.925781 194.578125 190.925781 194.605469 190.925781 194.640625 C 190.925781 196.542969 190.925781 198.382812 190.925781 200.121094 C 190.925781 200.148438 190.925781 200.179688 190.925781 200.207031 C 190.960938 201.84375 190.859375 203.539062 190.925781 205.171875 C 190.925781 205.191406 190.925781 205.222656 190.925781 205.242188 C 190.925781 209.539062 190.925781 212.375 190.925781 212.375 C 191.402344 211.980469 191.929688 211.480469 192.46875 210.855469 L 192.46875 191.535156 L 194.988281 187.535156 L 194.988281 156.035156 C 194.988281 155.445312 194.25 155.1875 193.878906 155.640625 " fill-opacity="1" fill-rule="nonzero"/><path fill="#ffffff" d="M 208.679688 198.78125 C 208.019531 199.96875 206.070312 203.285156 203.355469 206.003906 C 203.355469 206.003906 206.816406 203.273438 209.621094 199.375 C 209.785156 199.144531 209.757812 198.8125 209.539062 198.621094 C 209.53125 198.621094 209.527344 198.617188 209.527344 198.609375 C 209.253906 198.390625 208.84375 198.472656 208.679688 198.78125 " fill-opacity="1" fill-rule="nonzero"/><path fill="#ffffff" d="M 210.972656 200.300781 C 210.796875 200.652344 210.601562 201.183594 209.203125 203.019531 C 209.203125 203.019531 210.480469 202.160156 211.5625 200.675781 C 211.671875 200.53125 211.648438 200.320312 211.511719 200.203125 C 211.511719 200.203125 211.507812 200.195312 211.507812 200.195312 C 211.332031 200.058594 211.074219 200.101562 210.972656 200.300781 " fill-opacity="1" fill-rule="nonzero"/><path fill="#ffffff" d="M 165.652344 199.070312 C 166.296875 200.082031 168.1875 202.875 170.71875 205.105469 C 170.71875 205.105469 167.539062 202.910156 164.859375 199.648438 C 164.699219 199.449219 164.703125 199.15625 164.886719 198.976562 C 164.890625 198.976562 164.898438 198.972656 164.898438 198.972656 C 165.125 198.761719 165.484375 198.8125 165.652344 199.070312 " fill-opacity="1" fill-rule="nonzero"/><path fill="#ffffff" d="M 162.546875 201.742188 C 162.378906 201.753906 162.21875 201.792969 162.128906 201.878906 C 162.082031 201.914062 162.0625 201.972656 162.042969 202.019531 C 162.03125 202.078125 162.019531 202.132812 162.023438 202.191406 C 162.035156 202.441406 162.152344 202.71875 162.285156 202.980469 C 162.570312 203.503906 162.921875 204.019531 163.328125 204.5 C 163.746094 204.976562 164.203125 205.414062 164.6875 205.84375 L 165.054688 206.152344 L 165.429688 206.457031 L 165.8125 206.75 C 165.941406 206.851562 166.066406 206.945312 166.199219 207.046875 C 166.058594 206.972656 165.914062 206.894531 165.769531 206.824219 L 165.339844 206.585938 L 164.921875 206.335938 L 164.507812 206.070312 C 163.964844 205.703125 163.449219 205.296875 162.972656 204.839844 C 162.734375 204.605469 162.507812 204.363281 162.296875 204.101562 C 162.085938 203.835938 161.902344 203.539062 161.769531 203.21875 C 161.703125 203.058594 161.648438 202.882812 161.613281 202.703125 C 161.585938 202.527344 161.574219 202.332031 161.625 202.136719 C 161.648438 202.039062 161.699219 201.9375 161.757812 201.847656 C 161.832031 201.765625 161.921875 201.695312 162.019531 201.667969 C 162.21875 201.601562 162.40625 201.660156 162.546875 201.742188 " fill-opacity="1" fill-rule="nonzero"/><path fill="#ffffff" d="M 155.414062 246.484375 C 155.414062 246.484375 155.953125 245.847656 156.378906 243.589844 C 156.378906 243.589844 156.683594 246.34375 159.007812 248.339844 C 159.007812 248.339844 156.996094 247.414062 155.980469 248.042969 L 155.414062 246.484375 " fill-opacity="1" fill-rule="nonzero"/><path fill="#ffffff" d="M 185.308594 217.304688 L 191.519531 220.199219 C 193.589844 221.164062 195.664062 222.117188 197.742188 223.054688 L 198.519531 223.414062 L 199.300781 223.757812 L 200.859375 224.464844 L 203.988281 225.855469 C 206.070312 226.78125 208.171875 227.667969 210.257812 228.621094 C 208.058594 227.984375 205.882812 227.253906 203.746094 226.425781 L 202.945312 226.121094 C 202.679688 226.019531 202.417969 225.910156 202.152344 225.804688 L 200.558594 225.15625 C 199.507812 224.707031 198.453125 224.257812 197.410156 223.78125 C 195.324219 222.839844 193.273438 221.824219 191.25 220.753906 C 189.226562 219.683594 187.230469 218.558594 185.308594 217.304688 " fill-opacity="1" fill-rule="nonzero"/><path fill="#ed155d" d="M 188.988281 113.253906 C 188.210938 113.808594 187.488281 114.417969 186.808594 115.066406 C 186.125 115.710938 185.488281 116.398438 184.898438 117.117188 C 184.316406 117.839844 183.773438 118.59375 183.296875 119.386719 L 182.953125 119.984375 C 182.890625 120.085938 182.84375 120.191406 182.792969 120.289062 L 182.632812 120.601562 C 182.519531 120.800781 182.425781 121.011719 182.332031 121.222656 L 182.1875 121.539062 C 182.136719 121.640625 182.105469 121.746094 182.058594 121.851562 C 181.699219 122.703125 181.421875 123.582031 181.210938 124.480469 L 181.128906 124.820312 C 181.105469 124.929688 181.078125 125.046875 181.058594 125.160156 L 180.933594 125.839844 C 180.914062 125.957031 180.894531 126.066406 180.886719 126.183594 L 180.839844 126.527344 C 180.8125 126.761719 180.773438 126.988281 180.761719 127.222656 C 180.601562 129.074219 180.679688 130.957031 180.894531 132.859375 C 180.273438 131.054688 179.964844 129.125 179.980469 127.183594 C 179.976562 126.9375 179.996094 126.695312 180.007812 126.457031 L 180.03125 126.089844 C 180.035156 125.96875 180.046875 125.847656 180.0625 125.722656 L 180.160156 125.003906 C 180.167969 124.882812 180.191406 124.757812 180.21875 124.636719 L 180.285156 124.28125 L 180.359375 123.921875 C 180.386719 123.800781 180.417969 123.683594 180.445312 123.566406 C 180.511719 123.328125 180.570312 123.089844 180.640625 122.855469 L 180.875 122.160156 C 180.90625 122.042969 180.957031 121.929688 181 121.820312 L 181.132812 121.476562 C 181.183594 121.367188 181.230469 121.25 181.277344 121.136719 L 181.433594 120.804688 C 181.539062 120.582031 181.640625 120.363281 181.761719 120.152344 L 181.933594 119.824219 C 181.992188 119.71875 182.050781 119.613281 182.117188 119.507812 C 182.242188 119.296875 182.371094 119.089844 182.5 118.886719 C 183.035156 118.066406 183.644531 117.304688 184.316406 116.601562 C 184.988281 115.898438 185.714844 115.253906 186.496094 114.6875 C 186.886719 114.40625 187.289062 114.140625 187.707031 113.894531 C 188.117188 113.65625 188.542969 113.429688 188.988281 113.253906 " fill-opacity="1" fill-rule="nonzero"/><path fill="#ed155d" d="M 172.878906 135.085938 C 172.4375 135.773438 172.078125 136.480469 171.742188 137.203125 C 171.40625 137.921875 171.121094 138.660156 170.875 139.410156 C 170.625 140.152344 170.421875 140.914062 170.261719 141.675781 C 170.09375 142.441406 169.976562 143.21875 169.910156 143.996094 C 169.839844 144.773438 169.804688 145.558594 169.828125 146.339844 C 169.828125 146.734375 169.867188 147.125 169.882812 147.515625 C 169.898438 147.710938 169.921875 147.90625 169.9375 148.105469 L 169.964844 148.398438 C 169.972656 148.492188 169.992188 148.59375 170.003906 148.691406 C 170.203125 150.257812 170.558594 151.808594 170.988281 153.371094 C 170.171875 151.96875 169.59375 150.429688 169.234375 148.824219 C 169.210938 148.726562 169.183594 148.625 169.167969 148.527344 L 169.113281 148.222656 C 169.078125 148.015625 169.039062 147.816406 169.007812 147.609375 C 168.960938 147.199219 168.902344 146.796875 168.886719 146.378906 L 168.867188 146.074219 C 168.863281 145.96875 168.855469 145.863281 168.855469 145.765625 L 168.851562 145.144531 C 168.851562 144.9375 168.867188 144.734375 168.875 144.523438 L 168.890625 144.21875 L 168.917969 143.90625 C 168.953125 143.492188 169.019531 143.085938 169.078125 142.675781 L 169.195312 142.066406 C 169.238281 141.867188 169.289062 141.667969 169.339844 141.46875 C 169.542969 140.664062 169.816406 139.882812 170.144531 139.125 C 170.476562 138.371094 170.863281 137.644531 171.3125 136.964844 C 171.546875 136.625 171.785156 136.292969 172.046875 135.976562 C 172.300781 135.660156 172.574219 135.355469 172.878906 135.085938 " fill-opacity="1" fill-rule="nonzero"/><path fill="#ed155d" d="M 207.585938 156.535156 C 207.578125 156.777344 207.5625 157.019531 207.53125 157.269531 C 207.484375 157.515625 207.429688 157.757812 207.351562 157.996094 C 207.191406 158.472656 206.9375 158.945312 206.539062 159.3125 C 206.335938 159.496094 206.097656 159.648438 205.832031 159.753906 C 205.566406 159.855469 205.273438 159.90625 204.972656 159.878906 C 204.679688 159.847656 204.386719 159.753906 204.136719 159.59375 C 204.0625 159.5625 204.015625 159.515625 203.957031 159.476562 C 203.902344 159.4375 203.847656 159.394531 203.796875 159.355469 C 203.691406 159.265625 203.585938 159.171875 203.492188 159.074219 C 203.105469 158.667969 202.839844 158.125 202.738281 157.582031 C 202.632812 157.03125 202.65625 156.488281 202.722656 155.980469 C 202.867188 154.953125 203.183594 154.003906 203.5 153.085938 C 203.816406 152.160156 204.128906 151.253906 204.402344 150.339844 C 204.675781 149.425781 204.90625 148.5 205.0625 147.5625 C 205.390625 145.6875 205.390625 143.757812 205.058594 141.832031 C 205.78125 143.652344 206.015625 145.679688 205.828125 147.660156 C 205.738281 148.652344 205.554688 149.636719 205.304688 150.589844 C 205.058594 151.546875 204.746094 152.480469 204.4375 153.398438 C 204.285156 153.859375 204.125 154.316406 203.996094 154.769531 C 203.859375 155.21875 203.742188 155.675781 203.671875 156.125 C 203.59375 156.566406 203.566406 157.011719 203.625 157.425781 C 203.675781 157.835938 203.84375 158.214844 204.101562 158.53125 C 204.167969 158.613281 204.234375 158.691406 204.3125 158.761719 C 204.351562 158.796875 204.390625 158.835938 204.4375 158.867188 C 204.472656 158.902344 204.519531 158.941406 204.558594 158.960938 C 204.703125 159.078125 204.878906 159.15625 205.0625 159.195312 C 205.25 159.226562 205.445312 159.222656 205.644531 159.171875 C 205.839844 159.125 206.03125 159.035156 206.210938 158.90625 C 206.566406 158.664062 206.859375 158.292969 207.082031 157.882812 C 207.308594 157.464844 207.464844 157.003906 207.585938 156.535156 " fill-opacity="1" fill-rule="nonzero"/><path fill="#ed155d" d="M 204.257812 168.515625 C 204.332031 168.738281 204.402344 168.960938 204.472656 169.175781 C 204.546875 169.398438 204.625 169.613281 204.703125 169.835938 C 204.851562 170.273438 205.007812 170.707031 205.160156 171.140625 C 205.484375 172.003906 205.816406 172.863281 206.195312 173.691406 C 206.59375 174.542969 206.910156 175.488281 207.015625 176.464844 C 207.0625 176.949219 207.070312 177.4375 207.03125 177.925781 C 206.992188 178.414062 206.910156 178.898438 206.792969 179.367188 C 206.738281 179.601562 206.671875 179.835938 206.597656 180.0625 C 206.519531 180.296875 206.441406 180.515625 206.355469 180.742188 C 206.183594 181.1875 205.988281 181.625 205.773438 182.046875 C 205.339844 182.894531 204.847656 183.699219 204.300781 184.464844 C 203.214844 185.996094 201.972656 187.398438 200.613281 188.667969 C 201.679688 187.144531 202.75 185.636719 203.691406 184.066406 C 204.160156 183.277344 204.601562 182.480469 204.980469 181.664062 C 205.171875 181.253906 205.34375 180.839844 205.5 180.421875 C 205.65625 180 205.789062 179.574219 205.894531 179.148438 C 206 178.71875 206.078125 178.28125 206.121094 177.847656 C 206.164062 177.410156 206.164062 176.980469 206.136719 176.539062 C 206.105469 176.109375 206.03125 175.675781 205.925781 175.25 C 205.820312 174.816406 205.683594 174.394531 205.523438 173.96875 C 205.199219 173.082031 204.941406 172.183594 204.730469 171.273438 C 204.625 170.816406 204.53125 170.359375 204.453125 169.898438 C 204.414062 169.671875 204.375 169.4375 204.339844 169.210938 C 204.308594 168.976562 204.28125 168.75 204.257812 168.515625 " fill-opacity="1" fill-rule="nonzero"/><path fill="#ffffff" d="M 174.492188 179.917969 L 175.183594 180.457031 L 174.230469 179.996094 L 175.222656 177.933594 Z M 174.824219 177.753906 L 173.835938 179.808594 L 173.902344 180.449219 L 175.152344 181.050781 L 175.699219 180.707031 L 176.6875 178.648438 L 176.613281 178.011719 L 175.367188 177.410156 L 174.824219 177.753906 " fill-opacity="1" fill-rule="nonzero"/><path fill="#ffffff" d="M 176.105469 180.261719 L 177.617188 180.992188 L 178.105469 179.96875 L 176.4375 179.164062 L 176.277344 179.496094 L 176.105469 180.261719 " fill-opacity="1" fill-rule="nonzero"/><path fill="#ffffff" d="M 176.304688 176.113281 L 176.992188 176.652344 L 176.039062 176.191406 L 177.035156 174.128906 Z M 176.632812 173.949219 L 175.644531 176.003906 L 175.714844 176.644531 L 176.964844 177.246094 L 177.507812 176.902344 L 178.496094 174.84375 L 178.421875 174.207031 L 177.175781 173.601562 L 176.632812 173.949219 " fill-opacity="1" fill-rule="nonzero"/><path fill="#ffffff" d="M 177.914062 176.457031 L 179.425781 177.191406 L 179.921875 176.164062 L 178.246094 175.359375 L 178.089844 175.691406 L 177.914062 176.457031 " fill-opacity="1" fill-rule="nonzero"/><path fill="#ffffff" d="M 178.113281 172.308594 L 178.804688 172.847656 L 177.851562 172.386719 L 178.84375 170.324219 Z M 178.445312 170.148438 L 177.453125 172.199219 L 177.523438 172.84375 L 178.773438 173.441406 L 179.316406 173.097656 L 180.308594 171.039062 L 180.234375 170.402344 L 178.988281 169.796875 L 178.445312 170.148438 " fill-opacity="1" fill-rule="nonzero"/><path fill="#ffffff" d="M 179.726562 172.652344 L 181.234375 173.386719 L 181.726562 172.359375 L 180.058594 171.554688 L 179.898438 171.886719 L 179.726562 172.652344 " fill-opacity="1" fill-rule="nonzero"/><path fill="#ffffff" d="M 179.921875 168.503906 L 180.613281 169.042969 L 179.660156 168.582031 L 180.652344 166.519531 Z M 180.253906 166.335938 L 179.265625 168.394531 L 179.332031 169.039062 L 180.578125 169.636719 L 181.128906 169.292969 L 182.117188 167.234375 L 182.042969 166.59375 L 180.796875 165.992188 L 180.253906 166.335938 " fill-opacity="1" fill-rule="nonzero"/><path fill="#ffffff" d="M 181.535156 168.847656 L 183.046875 169.574219 L 183.535156 168.554688 L 181.867188 167.75 L 181.707031 168.085938 L 181.535156 168.847656 " fill-opacity="1" fill-rule="nonzero"/><path fill="#ffffff" d="M 181.734375 164.703125 L 182.421875 165.238281 L 181.46875 164.777344 L 182.464844 162.714844 Z M 182.058594 162.535156 L 181.074219 164.589844 L 181.144531 165.234375 L 182.394531 165.832031 L 182.9375 165.488281 L 183.921875 163.433594 L 183.855469 162.789062 L 182.609375 162.191406 L 182.058594 162.535156 " fill-opacity="1" fill-rule="nonzero"/><path fill="#ffffff" d="M 183.347656 165.046875 L 184.855469 165.773438 L 185.347656 164.75 L 183.675781 163.949219 L 183.519531 164.28125 L 183.347656 165.046875 " fill-opacity="1" fill-rule="nonzero"/><path fill="#ffffff" d="M 183.542969 160.898438 L 184.234375 161.433594 L 183.28125 160.976562 L 184.273438 158.90625 Z M 183.875 158.730469 L 182.886719 160.785156 L 182.953125 161.429688 L 184.199219 162.027344 L 184.746094 161.683594 L 185.738281 159.628906 L 185.664062 158.984375 L 184.417969 158.386719 L 183.875 158.730469 " fill-opacity="1" fill-rule="nonzero"/><path fill="#ffffff" d="M 185.15625 161.242188 L 186.664062 161.96875 L 187.15625 160.949219 L 185.488281 160.144531 L 185.328125 160.46875 L 185.15625 161.242188 " fill-opacity="1" fill-rule="nonzero"/><path fill="#ffffff" d="M 219.035156 223.320312 C 219.550781 228.054688 219.902344 234.382812 218.488281 239.90625 C 218.210938 240.988281 216.8125 241.289062 216.128906 240.410156 C 214.871094 238.804688 213.46875 238.121094 213.46875 238.121094 C 216.015625 241.164062 216.167969 244.058594 216.167969 244.058594 C 215.4375 241.566406 213.519531 240.683594 213.519531 240.683594 C 214.992188 243.371094 215.25 245.433594 214.992188 246.964844 C 214.523438 249.789062 211.578125 251.496094 208.878906 250.546875 C 208.859375 250.542969 208.851562 250.535156 208.832031 250.53125 C 198.058594 246.675781 189.152344 237.332031 184.578125 232 C 179.808594 226.433594 175.457031 224.292969 175.457031 224.292969 C 176.691406 223.433594 178.816406 223.71875 178.816406 223.71875 C 174.574219 220.910156 170.042969 220.714844 170.042969 220.714844 C 170.042969 220.714844 171.921875 221.597656 172.714844 223.488281 C 171.796875 223.375 170.890625 223.359375 170.039062 223.402344 C 166.117188 223.597656 162.378906 225.183594 159.601562 227.957031 C 154.859375 232.703125 155.585938 238.066406 155.585938 238.066406 C 159.730469 226.632812 169.191406 226.449219 169.191406 226.449219 C 165.347656 227.824219 163.886719 230.839844 163.886719 230.839844 C 165.988281 229.726562 167.859375 229.042969 169.183594 228.640625 C 170.980469 228.089844 172.898438 228.023438 174.71875 228.5 C 179.808594 229.835938 180.4375 234.257812 180.4375 234.257812 C 177.125 239.492188 168.675781 243.46875 168.675781 243.46875 C 172.582031 242.601562 176.527344 240.117188 176.527344 240.117188 C 171.558594 244.558594 164.335938 247.242188 164.335938 247.242188 C 171.160156 246.578125 177.574219 242.109375 177.574219 242.109375 C 175.683594 245.121094 171.757812 246.8125 171.757812 246.8125 C 177.125 245.785156 183.484375 239.519531 183.484375 239.519531 C 176.425781 247.871094 169.164062 249.804688 169.164062 249.804688 C 169.957031 248.570312 170.332031 247.078125 170.332031 247.078125 C 166.207031 251.402344 162.535156 251.507812 162.535156 251.507812 C 162.535156 251.507812 156.480469 252.167969 154.363281 242.359375 C 152.242188 232.554688 154.628906 220.714844 154.628906 220.714844 C 151.132812 229.503906 151.488281 239.617188 151.488281 239.617188 C 151.488281 239.617188 151.753906 258.617188 166.644531 253.890625 C 177.40625 250.46875 183.214844 244.222656 185.574219 241.054688 C 186.046875 240.429688 186.058594 239.570312 185.605469 238.925781 L 183.789062 236.351562 C 185.023438 237.675781 186.75 239.242188 186.75 239.242188 L 190.699219 242.691406 C 190.699219 242.691406 212.476562 262.347656 218.703125 249.027344 C 224.9375 235.707031 219.035156 223.320312 219.035156 223.320312 " fill-opacity="1" fill-rule="nonzero"/><path fill="#ffffff" d="M 215.875 228.628906 C 214.839844 226.675781 213.125 225.167969 211.058594 224.386719 C 207.550781 223.054688 203.4375 221.796875 201.835938 221.3125 L 199.859375 220.78125 L 200.957031 220.765625 C 201.285156 220.757812 201.609375 220.648438 201.863281 220.441406 C 202.695312 219.773438 204.492188 218.480469 208.367188 215.996094 C 215.460938 211.460938 215.925781 206.402344 215.925781 206.402344 C 212.921875 209.613281 208.6875 212.230469 208.6875 212.230469 C 210.636719 211.6875 213.496094 209.757812 213.496094 209.757812 C 210.953125 213.199219 205.058594 216.476562 205.058594 216.476562 C 206.53125 214.835938 207.109375 213.496094 207.109375 213.496094 C 204.195312 216.445312 200.925781 218.324219 200.925781 218.324219 C 201.28125 217.621094 201.652344 216.183594 201.652344 216.183594 C 200.03125 218.175781 197.996094 219.394531 197.996094 219.394531 C 199.34375 217.71875 200.214844 215.828125 200.214844 215.828125 C 199.816406 216.261719 199.371094 216.671875 198.921875 217.054688 C 197.277344 218.457031 194.921875 218.703125 193.019531 217.652344 C 192.679688 217.464844 192.351562 217.277344 192.054688 217.082031 C 190.800781 216.285156 190.605469 214.53125 191.648438 213.46875 C 197.476562 207.675781 198.480469 201.3125 198.640625 198.773438 C 198.691406 197.96875 199.15625 197.246094 199.867188 196.863281 C 201.457031 196.019531 204.019531 194.867188 204.019531 194.867188 L 199.402344 195.882812 C 195.914062 197.03125 198.1875 199.902344 195.292969 206.3125 C 192.398438 212.71875 188.554688 213.777344 188.554688 213.777344 C 179.507812 210.234375 178.460938 201.226562 178.460938 201.226562 C 178.429688 200.988281 178.382812 200.761719 178.335938 200.546875 C 177.816406 198.144531 175.886719 196.292969 173.472656 195.871094 C 170.621094 195.378906 169.921875 193.808594 169.921875 193.808594 C 169.921875 193.808594 170.277344 196.011719 172.800781 196.558594 C 174.785156 196.992188 176.386719 198.46875 176.898438 200.433594 C 177.023438 200.941406 177.109375 201.40625 177.160156 201.773438 C 177.351562 203.109375 177.675781 204.429688 178.160156 205.691406 C 180.757812 212.390625 186.125 214.660156 186.125 214.660156 C 183.121094 213.84375 180.4375 211.59375 180.4375 211.59375 C 183.121094 215.535156 192.351562 219.300781 192.351562 219.300781 C 199.066406 222.113281 207.597656 225.628906 211.207031 227.113281 C 212.5 227.640625 213.667969 228.429688 214.644531 229.425781 C 216.085938 230.90625 217.535156 232.597656 217.535156 232.597656 C 217.0625 231.324219 216.445312 229.703125 215.875 228.628906 " fill-opacity="1" fill-rule="nonzero"/><path fill="#ed155d" d="M 178.089844 148.570312 C 178.800781 148.984375 179.566406 149.242188 180.339844 149.363281 C 180.730469 149.429688 181.125 149.457031 181.511719 149.464844 C 181.898438 149.464844 182.289062 149.441406 182.664062 149.390625 C 183.429688 149.28125 184.171875 149.070312 184.855469 148.746094 C 185.199219 148.582031 185.527344 148.398438 185.835938 148.183594 C 186.140625 147.964844 186.4375 147.726562 186.695312 147.460938 C 186.960938 147.199219 187.207031 146.914062 187.421875 146.605469 C 187.644531 146.300781 187.839844 145.976562 188.003906 145.636719 C 188.347656 144.953125 188.582031 144.21875 188.742188 143.453125 C 188.820312 143.070312 188.875 142.679688 188.921875 142.28125 L 188.953125 141.988281 L 188.96875 141.6875 L 188.980469 141.542969 L 188.992188 141.394531 L 189.003906 141.09375 C 189.007812 140.890625 189.015625 140.691406 189.015625 140.492188 L 189.015625 140.1875 L 189.003906 139.882812 C 188.996094 139.476562 188.976562 139.070312 188.953125 138.660156 C 188.988281 138.753906 189.019531 138.855469 189.046875 138.953125 C 189.082031 139.050781 189.113281 139.148438 189.140625 139.25 C 189.191406 139.449219 189.253906 139.640625 189.296875 139.847656 C 189.390625 140.246094 189.457031 140.65625 189.519531 141.066406 C 189.570312 141.476562 189.609375 141.894531 189.613281 142.316406 C 189.617188 142.421875 189.613281 142.527344 189.613281 142.632812 C 189.613281 142.738281 189.613281 142.84375 189.601562 142.949219 C 189.597656 143.054688 189.597656 143.160156 189.585938 143.261719 L 189.558594 143.578125 C 189.546875 143.683594 189.53125 143.785156 189.519531 143.890625 C 189.503906 144 189.484375 144.105469 189.46875 144.207031 C 189.453125 144.3125 189.429688 144.417969 189.402344 144.523438 C 189.378906 144.628906 189.363281 144.734375 189.332031 144.832031 C 189.226562 145.253906 189.085938 145.660156 188.910156 146.058594 C 188.738281 146.453125 188.519531 146.835938 188.277344 147.199219 C 188.027344 147.5625 187.75 147.898438 187.433594 148.210938 C 187.125 148.519531 186.78125 148.796875 186.414062 149.035156 C 186.046875 149.28125 185.660156 149.484375 185.261719 149.652344 C 184.855469 149.824219 184.4375 149.957031 184.019531 150.046875 C 183.597656 150.140625 183.167969 150.191406 182.738281 150.210938 C 181.882812 150.238281 181.023438 150.132812 180.21875 149.863281 C 180.015625 149.796875 179.820312 149.71875 179.625 149.636719 C 179.4375 149.539062 179.25 149.453125 179.070312 149.339844 C 178.707031 149.128906 178.378906 148.871094 178.089844 148.570312 " fill-opacity="1" fill-rule="nonzero"/></svg>